<?xml version="1.0" encoding="utf-8"?>
<!-- Generator: Adobe Illustrator 21.0.0, SVG Export Plug-In . SVG Version: 6.00 Build 0)  -->
<svg version="1.1" id="图层_1" xmlns="http://www.w3.org/2000/svg" xmlns:xlink="http://www.w3.org/1999/xlink" x="0px" y="0px"
	 viewBox="0 0 200 200" style="enable-background:new 0 0 200 200;" xml:space="preserve">
<style type="text/css">
	.st0{fill:#FFFFFF;}
</style>
<path class="st0" d="M109.7,194.2l-70.5-38.4c0,0-11.4-20.6,13.3-20.2c14.3,0.4,23.3,9.9,23.3,9.9L39.5,57.2c0,0,4.7-23.7,23.3-9.7
	l23.5,55.7c0,0,5.8-23.9,29.8-11c0,0,3.5-24.9,28.9-11c0,0,2.2-28,24.5-7.9l29.3,70c0,0,1.6,5.7-5.4,15.9L109.7,194.2L109.7,194.2z"
	/>
<path class="st0" d="M32.2,7.7C6.4,18.5-5.8,48.2,5,74c7.2,17.3,23,28.3,40.4,30.5l-6-14.4C29.4,86.7,20.9,79.4,16.6,69
	c-8.1-19.3,1-41.5,20.3-49.5c19.3-8.1,41.5,1,49.5,20.3C90.7,50,90,61,85.7,70.3L91.9,85c10.6-13.9,13.8-32.8,6.6-50.1
	C87.7,9.1,58-3.1,32.2,7.7L32.2,7.7z"/>
</svg>
