<?xml version="1.0" encoding="utf-8"?>
<!-- Generator: Adobe Illustrator 21.0.0, SVG Export Plug-In . SVG Version: 6.00 Build 0)  -->
<svg version="1.1" id="图层_1" xmlns="http://www.w3.org/2000/svg" xmlns:xlink="http://www.w3.org/1999/xlink" x="0px" y="0px"
	 viewBox="0 0 478.8 162.4" style="enable-background:new 0 0 478.8 162.4;" xml:space="preserve">
<style type="text/css">
	.st0{fill:none;}
	.st1{fill:#FFFFFF;}
</style>
<path class="st0" d="M-43.9,267.7c0-123.6,0-247.2,0-370.8c195.5,0,390.9,0,586.4,0c0,123.6,0,247.2,0,370.8
	C347,267.7,151.5,267.7-43.9,267.7z M326.2,162.1c20.2,0,40.1,0,60.3,0c0-18.9,0-37.4,0-56.3c11,0,21.7,0.1,32.4,0
	c9.1-0.1,18.2-0.6,26.9-3.8c19-7.1,30.4-20.7,32.6-40.9c2-18.4-3.7-34.2-19.1-45.4C448,7.2,434.9,4.6,421.1,4.6
	c-30.3,0-60.6,0-90.8,0c-1.3,0-2.6,0.1-4,0.2C326.2,57.3,326.2,109.5,326.2,162.1z M190.5,162.3c-0.8-1.4-1.1-2.1-1.5-2.7
	C159,108.3,129,57,99,5.7c-4.4-7.6-5.7-7.5-10.1,0.1c-23.7,40.7-47.5,81.4-71.2,122c-5.5,9.5-11.1,18.9-16.6,28.4
	c-2.2,3.8-1,5.8,3.3,6c0.8,0.1,1.6,0,2.4,0c30.4,0,60.8,0,91.3,0c1.3,0,2.6,0,4.2,0c-0.9-3.2-2.2-4.7-5.7-4.7
	c-28.3,0.1-56.5,0.1-84.8,0.1c-1.6,0-3.1,0-5.5,0C25.3,125,44,93,63,60.5c2.4,4,4.5,7.4,6.5,10.9c17.1,29.2,34.2,58.4,51.2,87.7
	c1.4,2.4,2.9,3.4,5.7,3.2c4.1-0.3,8.3-0.1,12.5-0.1C155.8,162.3,172.8,162.3,190.5,162.3z M204.8,9.2c0,51.4,0,102.1,0,152.8
	c20.3,0,40.1,0,60.4,0c0-51.1,0-101.8,0-152.9c15.9,0,31.4,0,47.1,0c0-1.6,0-2.9,0-4.3c-51.7,0-103.3,0-155.1,0
	c0.1,1.5,0.2,2.8,0.2,4.4C173.2,9.2,188.7,9.2,204.8,9.2z"/>
<path class="st1" d="M326.2,162.1c0-52.5,0-104.7,0-157.2c1.4-0.1,2.7-0.2,4-0.2c30.3,0,60.6,0,90.8,0c13.8,0,27,2.6,38.3,10.9
	c15.4,11.2,21.1,27.1,19.1,45.4c-2.2,20.2-13.6,33.8-32.6,40.9c-8.7,3.2-17.8,3.8-26.9,3.8c-10.7,0.1-21.4,0-32.4,0
	c0,18.9,0,37.5,0,56.3C366.3,162.1,346.4,162.1,326.2,162.1z M386.9,98.7c11.9,0,25.4,0.1,37-0.1c4.3-0.1,8.6-0.6,12.8-1.5
	c20.2-4.2,33.8-20.1,34.5-40c0.8-21.8-10.5-37.8-31.3-43.3c-16.7-4.5-35.8-1.3-52.9-2.4C386.9,40.8,386.9,69.5,386.9,98.7z"/>
<path class="st1" d="M190.5,162.3c-17.7,0-34.7,0-51.7,0c-4.2,0-8.3-0.2-12.5,0.1c-2.8,0.2-4.3-0.9-5.7-3.2
	c-17-29.3-34.1-58.5-51.2-87.7c-2-3.4-3.1-5.2-5.5-9.2C45,94.7,27.5,123,8.4,155.7c2.4,0,2,0,3.5,0c28.3,0,55,0.1,83.3-0.1
	c3.4,0,6.1,3.4,7,6.7c-1.6,0-2.9,0-4.2,0c-30.4,0-60.8,0-91.3,0c-0.8,0-1.6,0-2.4,0c-4.3-0.3-5.4-2.3-3.3-6
	c5.5-9.5,11.1-19,16.6-28.4c23.7-40.7,47.5-81.4,71.2-122c4.5-7.6,5.7-7.7,10.1-0.1c30,51.3,60,102.6,90,153.9
	C189.4,160.2,189.7,160.9,190.5,162.3z"/>
<path class="st1" d="M204.8,11.2c-16.1,0-31.6,0-47.4,0c-0.1-1.6-0.2-4.9-0.2-6.4c51.8,0,103.3,0,155.1,0c0,1.4,0,4.7,0,6.3
	c-15.7,0-31.2,0-47.1,0c0,51.1,0,99.8,0,150.9c-20.2,0-40.1,0-60.4,0C204.8,111.4,204.8,62.6,204.8,11.2z"/>
</svg>
