<?xml version="1.0" encoding="utf-8"?>
<!-- Generator: Adobe Illustrator 21.0.0, SVG Export Plug-In . SVG Version: 6.00 Build 0)  -->
<svg version="1.1" id="图层_1" xmlns="http://www.w3.org/2000/svg" xmlns:xlink="http://www.w3.org/1999/xlink" x="0px" y="0px"
	 viewBox="0 0 708.7 283.5" style="enable-background:new 0 0 708.7 283.5;" xml:space="preserve">
<style type="text/css">
	.st0{fill:#3BBEEE;}
</style>
<path class="st0" d="M144.4,126.6h18l14.8,50.8l14.7-50.8h18l2.1,63.1h-15.5l1.5-51.3l-13.3,51.3h-15.1l-13.3-51.3l1.5,51.3h-15.5
	L144.4,126.6z"/>
<path class="st0" d="M219.5,174.1l0.5-31.6l13-14h31.1l13.1,14l0.5,31.6l-14,13.8h-30L219.5,174.1z M260.5,174.6l3.2-33.9h-30.2
	l2.9,33.9H260.5z"/>
<path class="st0" d="M286.8,188.8l-1.5-60.7l34-0.4l8.9,9.1l-0.4,13.3l-10.7,5.2l11.4,5.9l0.9,19l-8.8,9L286.8,188.8z M314.1,163
	l-14.5-1.4l-1.8,16.7l17.6,0.5L314.1,163z M312.9,151.2l-1-13.7l-10.8,0.7l-1.3,13.5L312.9,151.2z"/>
<path class="st0" d="M336.8,174.1l0.5-31.6l13-14h31.1l13.1,14l0.5,31.6l-14,13.8h-30L336.8,174.1z M377.7,174.6l3.3-33.9h-30.2
	l2.9,33.9H377.7z"/>
<path class="st0" d="M451.8,137.1l-20,1.6l2.4,50.7h-16.3l1.7-49.9l-19.3,1.8v-14l51.5,0.6V137.1z"/>
<path class="st0" d="M486,140.3l-7.4,24.2l13.3-0.7l-0.4,12.2l-15.7-2.4l-5,16.2h-14.3l20.7-62.8h17.6l21.9,62.8h-15.6L486,140.3z"
	/>
<path class="st0" d="M560.5,169.1l-22.4-1.2l0.9,22.6h-15.5l1-65.7h11.7l0.1,1.7l23.9-0.7l7.9,8.1l1.6,27.2L560.5,169.1z M556,137.4
	l-19.2-0.4l0.9,19.8l16.4-0.3L556,137.4z"/>
</svg>
