<svg xmlns="http://www.w3.org/2000/svg" width="444.28" height="142.313" viewBox="0 0 444.28 142.313">
  <metadata><?xpacket begin="﻿" id="W5M0MpCehiHzreSzNTczkc9d"?>
<x:xmpmeta xmlns:x="adobe:ns:meta/" x:xmptk="Adobe XMP Core 5.6-c138 79.159824, 2016/09/14-01:09:01        ">
   <rdf:RDF xmlns:rdf="http://www.w3.org/1999/02/22-rdf-syntax-ns#">
      <rdf:Description rdf:about=""/>
   </rdf:RDF>
</x:xmpmeta>
                                                                                                    
                                                                                                    
                                                                                                    
                                                                                                    
                                                                                                    
                                                                                                    
                                                                                                    
                                                                                                    
                                                                                                    
                                                                                                    
                                                                                                    
                                                                                                    
                                                                                                    
                                                                                                    
                                                                                                    
                                                                                                    
                                                                                                    
                                                                                                    
                                                                                                    
                                                                                                    
                           
<?xpacket end="w"?></metadata>
<defs>
    <style>
      .cls-1 {
        fill: #fff;
        fill-rule: evenodd;
      }
    </style>
  </defs>
  <path id="星途协议_去中心化数字营销协议" data-name="星途协议  去中心化数字营销协议" class="cls-1" d="M747.852,128.911h24.863v7.68H746.892v7.679h25.823v7.68H735.469v8.255h81.69V151.95H781.93v-7.68h27.358v-7.679H781.93v-7.68h30.91v-8.063H781.93V114.32h-9.215v6.528H751.4l2.112-5.856-8.255-1.823c-3.648,10.463-8.064,18.622-13.247,24.574l5.951,7.1A79.146,79.146,0,0,0,747.852,128.911ZM743.725,76.4v35.326h63.451V76.4H743.725Zm54.428,27.646h-45.4V97.714h45.4v6.335Zm-45.4-13.631v-6.24h45.4v6.24h-45.4Zm133.535,32.926a71.762,71.762,0,0,1-10.463,16.7l6.815,4.8A80.143,80.143,0,0,0,893.387,126.8Zm35.709-.768-6.815,4.224A141.582,141.582,0,0,1,926.6,145.326l7.1-4.991A135.435,135.435,0,0,0,921.992,122.576ZM901.546,73.907c-6.24,9.215-15.167,16.8-26.686,22.558l4.8,7.2a87.356,87.356,0,0,0,8.256-4.7v4.991h13.439V112.4H878.892v8.159h22.462V136.5c0,2.112-1.056,3.264-2.976,3.264a48.578,48.578,0,0,1-7.3-.576l2.016,8.543h8.351c5.76,0,8.639-3.072,8.639-9.023V120.56h22.367V112.4H910.089v-8.448h12.383V98.194a81.187,81.187,0,0,0,8.736,4.8l4.8-7.3c-12.863-6.335-21.982-13.535-27.166-21.79h-7.295Zm-9.5,22.078a66.888,66.888,0,0,0,13.151-13.823,58.156,58.156,0,0,0,14.015,13.823H892.043ZM857.581,74.675l-6.239,5.952a102.169,102.169,0,0,1,16.222,15.551L874,89.842A122.079,122.079,0,0,0,857.581,74.675Zm55.292,86.01h21.791l2.207-9.023c-2.591.192-6.239,0.384-11.039,0.48s-9.6.192-14.207,0.192c-7.487,0-14.015-.1-19.486-0.192-5.664-.192-9.984-1.056-12.863-2.4a26.2,26.2,0,0,1-6.912-5.76,10.182,10.182,0,0,0-1.44-1.44V106.257H849.518V114.7h12.863V141.87c-3.84,1.92-8.16,6.816-12.959,14.591l6.719,6.24q7.344-12.958,10.367-12.959c1.152,0,2.3.768,3.648,2.4a22.06,22.06,0,0,0,10.175,6.719,70.536,70.536,0,0,0,15.263,1.632C901.834,160.589,907.593,160.685,912.873,160.685Zm136.317-50.2-5.76,1.92c0-6.624.1-14.015,0.1-22.175h-19.3V74.483h-8.83V90.226H999.851v8.831H1015.4v0.576q-0.435,39.166-20.924,56.828l6.814,6.048c14.98-13.247,22.56-34.174,22.94-62.875V99.058h10.27c-0.19,26.4-.48,41.853-1.05,46.46-0.67,4.992-2.98,7.488-7.01,7.488-2.3,0-5.09-.192-8.16-0.384l2.21,8.351c3.46,0.288,5.95.48,7.49,0.48,8.44,0,13.15-3.936,14.11-11.711,0.57-5.28,1.05-16.607,1.34-33.982,2.21,5.952,4.32,12.671,6.43,20.159l6.82-3.168A215.077,215.077,0,0,0,1049.19,110.481Zm-48.28-.288a58.229,58.229,0,0,1-10.562,22.366l6.144,5.76c4.988-6.144,8.928-14.879,11.618-26.3ZM967.31,95.6v8.543h10.367v58.172h8.735V104.145H996.4V95.6h-9.984V74.291h-8.735V95.6H967.31Zm171.26-22.462-6.82,4.992A172.088,172.088,0,0,1,1145,98.77l7.2-4.992A160.4,160.4,0,0,0,1138.57,73.139Zm22.94,5.184c-2.69,19.583-8.06,35.8-16.32,48.765q-12.375-17.568-19-43.2l-7.87,4.416q7.92,27.358,21.4,46.269a72.309,72.309,0,0,1-26.4,20.255l5,7.775a77.912,77.912,0,0,0,27.35-20.543,89.409,89.409,0,0,0,25.25,20.543l5.38-7.871a86.442,86.442,0,0,1-25.15-19.967q14.385-21.023,19-54.62Zm-61.82-3.84-6.33,6.048a93.424,93.424,0,0,1,15.55,14.495l6.24-6.336A126.494,126.494,0,0,0,1099.69,74.483Zm-13.05,27.838v8.736h13.44v34.461a5.887,5.887,0,0,1-2.5,4.8l3.46,8.351a145.648,145.648,0,0,0,18.43-15.071l-2.5-9.7c-2.88,2.88-5.57,5.472-8.16,7.775V102.321h-22.17ZM750.978,204.59l-1.624,1.036c1.484,1.96,2.828,3.836,4,5.628-2.688.336-7.448,0.756-14.224,1.288a32.257,32.257,0,0,0,6.048-9.268h13.356v-1.96h-11.4v-5.292h9.6v-1.96h-9.6V189.61H745.07v4.452h-9.66v1.96h9.66v5.292H733.646v1.96h9.3q-3.78,7.56-7.392,9.52l0.364,1.652q8.736-.5,18.48-1.512c0.5,0.84.98,1.68,1.428,2.492l1.708-1.2A77.891,77.891,0,0,0,750.978,204.59Zm40.292-15.148v5.04H781.246v13.16h2.016v-1.764h8.008v9.548h2.072v-9.548h8.036v1.764h2.016v-13.16H793.342v-5.04H791.27Zm-8.008,14.476v-7.476h8.008v7.476h-8.008Zm10.08,0v-7.476h8.036v7.476h-8.036Zm48.748,10.388a2.949,2.949,0,0,0,2.492-1.064c0.588-.84.98-3.164,1.2-7l-1.9-.644c-0.14,3.276-.392,5.236-0.728,5.908a1.492,1.492,0,0,1-1.428.812h-5.264q-1.512,0-1.512-1.26V195.406h-2.016v16.072c0,1.876.952,2.828,2.912,2.828h6.244Zm-13.3-15.9a52.534,52.534,0,0,1-3.164,11.732l1.736,1.092a55.268,55.268,0,0,0,3.36-12.432Zm18.032-.868-1.96.644a83.449,83.449,0,0,1,4.788,11.816l1.848-.84A88.231,88.231,0,0,0,846.822,197.534Zm-10.08-7.868-1.68,1.036A54,54,0,0,1,841,197.954l1.68-1.148A57.384,57.384,0,0,0,836.742,189.666Zm43.68-.308a30.575,30.575,0,0,1-8.652,11.76l0.644,2.1a42.135,42.135,0,0,0,4.116-3.92v15.988h2.016V196.834a32.145,32.145,0,0,0,3.752-6.608Zm12.908,25.424a3.272,3.272,0,0,0,2.772-1.008c0.476-.672.812-2.632,1.008-5.852l-1.876-.616c-0.112,2.772-.308,4.4-0.616,4.844a1.936,1.936,0,0,1-1.624.7h-4.536a1.2,1.2,0,0,1-1.4-1.316V202.07a45.382,45.382,0,0,0,9.128-7.476l-1.4-1.6a39.8,39.8,0,0,1-7.728,6.692v-10h-2.016v11.228c-1.428.84-2.94,1.6-4.508,2.324l0.9,1.9c1.232-.588,2.436-1.2,3.612-1.876v8.54c0,1.96.98,2.968,2.94,2.968h5.348Zm42-19.012h4.144a29.948,29.948,0,0,1-1.792,9.912,38.5,38.5,0,0,1-2.716-8.456Zm1.428,11.928a16.481,16.481,0,0,1-5.18,5.824l1.036,1.68a18.783,18.783,0,0,0,5.18-5.628,18.372,18.372,0,0,0,5.04,5.656l1.092-1.652a17.326,17.326,0,0,1-5.18-5.824,29.931,29.931,0,0,0,2.576-11.984h1.82v-1.932H935.75c0.224-1.232.448-2.576,0.616-4l-1.96-.336c-0.56,5.32-1.68,9.548-3.332,12.684l1.26,1.54a24.7,24.7,0,0,0,1.652-3.444A38.739,38.739,0,0,0,936.758,207.7Zm-13.272-5.124q-0.294.84-.672,1.764h-4.088V206.1h3.3c-0.56,1.12-1.2,2.268-1.932,3.5,1.372,0.5,2.66,1.036,3.892,1.568a25.251,25.251,0,0,1-5.908,2.3l0.952,1.68a22.968,22.968,0,0,0,6.972-3.108,40.738,40.738,0,0,1,4.312,2.212l1.092-1.568c-1.232-.672-2.52-1.288-3.864-1.9a11.278,11.278,0,0,0,3.108-4.788v-1.652H924.8c0.168-.5.364-1.008,0.56-1.54Zm2.212,7.42c-1.008-.42-2.072-0.812-3.192-1.2a20.813,20.813,0,0,0,1.512-2.688h4.816A10.845,10.845,0,0,1,925.7,209.994Zm-4.76-19.908-1.6.532a25.9,25.9,0,0,1,1.876,3.64l1.456-.672A23.957,23.957,0,0,0,920.938,190.086ZM929.45,190a17.809,17.809,0,0,1-2.128,3.556l1.428,0.728a18.645,18.645,0,0,0,2.156-3.612Zm-10.668,4.928v1.764h3.976a11.592,11.592,0,0,1-4.508,4.2l0.98,1.624a13.113,13.113,0,0,0,5.012-5.74v5.32h1.876v-3.64q1.512,1.008,3.612,2.688l1.036-1.568c-1.568-.952-3.136-1.82-4.648-2.576v-0.308h5.1V194.93h-5.1v-5.348h-1.876v5.348h-5.46Zm70.2-2.492H978.422c-0.364-1.148-.756-2.184-1.148-3.108l-2.3.392a22.411,22.411,0,0,1,1.26,2.716h-11v6.244h2.016V194.37h19.712v4.312h2.016v-6.244Zm-19.432,4.956v1.876h12.012c-1.148.728-2.856,1.708-5.124,2.884V204.9h-11.7v1.96h11.7v5.236a1.035,1.035,0,0,1-1.092,1.232c-1.176,0-2.24-.028-3.22-0.056l0.476,1.848h3.444c1.624,0,2.436-.784,2.436-2.324v-5.936H989.51V204.9H978.478v-1.876a63.91,63.91,0,0,0,6.1-3.752v-1.876H969.546Zm46.844,2.38v5.684h13.94v-5.684h-13.94Zm12.07,4.144h-10.19v-2.576h10.19v2.576Zm4.53,3.444H1013.9v7.9h1.96V214.11h15.2v1.148h1.93v-7.9Zm-17.13,5.04v-3.36h15.2v3.36h-15.2Zm-4.59-20.916v1.764h6.3V194.9h2.01V193.25h7.45V194.9h2.02V193.25h6.3v-1.764h-6.3V189.61h-2.02v1.876h-7.45V189.61h-2.01v1.876h-6.3Zm23.29,4.592h-22.51v5.376h1.93v-3.668h18.65v3.528h1.93v-5.236Zm39.29-6.44v7.756h-5.32v17.752h2.01v-6.188h8.54v2.94a1.072,1.072,0,0,1-1.06,1.316l-2.69-.084,0.53,1.932h2.8c1.63,0,2.44-.924,2.44-2.716V197.394h-5.27v-7.756h-1.98Zm-3.31,14.5h8.54v3.08h-8.54v-3.08Zm8.54-1.736h-8.54V199.3h8.54v3.108Zm-9.57-11.7-1.71.812a30.9,30.9,0,0,1,2.63,4.7l1.62-.812A46.827,46.827,0,0,0,1069.51,190.7Zm10.64-.252a29.023,29.023,0,0,1-2.66,4.928l1.65,0.84a27.975,27.975,0,0,0,2.69-4.984Zm-19.8-.84a30.389,30.389,0,0,1-3.78,9.24l1.65,1.036a29.254,29.254,0,0,0,2.63-5.264h5.8v-1.9h-5.12c0.28-.868.53-1.764,0.78-2.716Zm-0.84,8.764v1.82h1.79v3.528h-3.86V205.6h3.86v6.384a0.988,0.988,0,0,1-.84.84l0.84,1.736a26.471,26.471,0,0,0,6.13-2.408l-0.33-1.792a22.706,22.706,0,0,1-3.84,1.82V205.6h3.87v-1.876h-3.87v-3.528h2.91v-1.82h-6.66Zm66.84,1.9-1.57.5a58.749,58.749,0,0,1,2.38,6.748l1.54-.7A53.581,53.581,0,0,0,1126.35,200.278Zm-9.24-10.5v4.816h-4.76v1.96h4.76v0.476q-0.135,11.634-6.3,16.884l1.51,1.344q6.585-5.754,6.75-18.228v-0.476h3.66q-0.075,11.76-.33,14.028c-0.23,1.652-1.01,2.492-2.35,2.492-0.68,0-1.43-.028-2.33-0.084l0.51,1.848c0.98,0.056,1.68.112,2.1,0.112a3.609,3.609,0,0,0,4-3.556q0.42-3.192.42-16.8h-5.68v-4.816h-1.96Zm-4.26,10.36a17.068,17.068,0,0,1-3.22,6.776l1.34,1.26a18.628,18.628,0,0,0,3.5-7.616Zm-10-3.976v1.876h3.25V215.23h1.93V198.038h3.14v-1.876h-3.14v-6.44h-1.93v6.44h-3.25Zm60.96-6.72-1.51,1.092a52.316,52.316,0,0,1,4.03,6.188l1.6-1.092A48.062,48.062,0,0,0,1163.81,189.442Zm7.45,1.4a35.676,35.676,0,0,1-5.1,14.84,40.417,40.417,0,0,1-5.88-13.1l-1.73.952a43.3,43.3,0,0,0,6.44,13.776,21.608,21.608,0,0,1-8.04,6.272l1.09,1.708a22.554,22.554,0,0,0,8.23-6.328,26.368,26.368,0,0,0,7.65,6.328l1.17-1.764a24.327,24.327,0,0,1-7.61-6.16c2.85-4.144,4.76-9.52,5.68-16.128Zm-18.71-1.008-1.4,1.316a29.278,29.278,0,0,1,4.71,4.4l1.37-1.4A37.585,37.585,0,0,0,1152.55,189.834Zm-3.38,8.288v1.932h4.11v10.92a1.489,1.489,0,0,1-.64,1.176l0.78,1.848a39.277,39.277,0,0,0,5.15-4.284l-0.53-2.156c-1.01,1.008-1.93,1.876-2.83,2.66v-12.1h-6.04Z" transform="translate(-732 -73.125)"/>
</svg>
