<?xml version="1.0" encoding="utf-8"?>
<!-- Generator: Adobe Illustrator 21.0.0, SVG Export Plug-In . SVG Version: 6.00 Build 0)  -->
<svg version="1.1" id="图层_1" xmlns="http://www.w3.org/2000/svg" xmlns:xlink="http://www.w3.org/1999/xlink" x="0px" y="0px"
	 viewBox="0 0 604 112" style="enable-background:new 0 0 604 112;" xml:space="preserve">
<style type="text/css">
	.st0{fill:none;}
	.st1{enable-background:new    ;}
	.st2{fill:#FFFFFF;}
</style>
<path class="st0" d="M0,0"/>
<g>
	<g class="st1">
		<path class="st2" d="M38.8,51.1l-6.3-15.9H12.4L6.2,51.1H0.3L20.2,0.9h4.9l19.8,50.2C44.9,51.1,38.8,51.1,38.8,51.1z M30.7,30
			l-5.9-15.5c-0.8-2-1.5-4.4-2.3-7.2c-0.5,2.2-1.2,4.6-2.2,7.2L14.5,30H30.7z"/>
		<path class="st2" d="M68.3,51.1h-5.9V6.3H46.5V1.1h37.7v5.2H68.3V51.1z"/>
		<path class="st2" d="M92.8,51.1v-50h5.9v44.7h22.2v5.3H92.8z"/>
		<path class="st2" d="M162,51.1l-6.3-15.9h-20.2l-6.2,15.9h-5.9l19.9-50.2h4.9L168,51.1H162z M153.9,30L148,14.5
			c-0.8-2-1.5-4.4-2.3-7.2c-0.5,2.2-1.2,4.6-2.2,7.2L137.6,30H153.9z"/>
		<path class="st2" d="M204.3,37.8c0,4.4-1.6,7.8-4.8,10.3s-7.6,3.7-13.1,3.7c-6,0-10.6-0.8-13.8-2.3v-5.6c2.1,0.9,4.3,1.5,6.7,2.1
			c2.4,0.5,4.8,0.8,7.2,0.8c3.9,0,6.8-0.7,8.8-2.2s3-3.5,3-6.1c0-1.7-0.4-3.1-1-4.3c-0.7-1.1-1.9-2.1-3.5-3.1
			c-1.6-0.9-4.1-2-7.5-3.2c-4.7-1.7-8-3.6-10-5.9s-3-5.3-3-8.9c0-3.9,1.5-6.9,4.4-9.2s6.8-3.4,11.6-3.4c5,0,9.6,0.9,13.8,2.7
			l-1.8,5.1c-4.2-1.7-8.2-2.6-12.1-2.6c-3.1,0-5.5,0.7-7.3,2c-1.7,1.3-2.6,3.2-2.6,5.5c0,1.7,0.3,3.2,1,4.3c0.6,1.1,1.7,2.1,3.3,3
			c1.5,0.9,3.9,1.9,7,3.1c5.3,1.9,8.9,3.9,10.9,6C203.3,31.6,204.3,34.4,204.3,37.8z"/>
		<path class="st2" d="M266.8,15.7c0,5.1-1.7,9-5.2,11.7s-8.4,4.1-14.9,4.1h-5.9v19.7h-5.9v-50h13C260.5,1.1,266.8,6,266.8,15.7z
			 M240.7,26.5h5.3c5.2,0,8.9-0.8,11.3-2.5c2.3-1.7,3.5-4.3,3.5-8c0-3.3-1.1-5.8-3.3-7.4c-2.2-1.6-5.6-2.4-10.2-2.4h-6.5v20.3H240.7
			z"/>
		<path class="st2" d="M284.2,30.3v20.8h-5.9v-50h13.8c6.2,0,10.7,1.2,13.7,3.5c2.9,2.3,4.4,5.9,4.4,10.6c0,6.6-3.4,11.1-10.1,13.4
			l13.7,22.5h-6.9l-12.2-20.8H284.2z M284.2,25.3h8c4.1,0,7.2-0.8,9.1-2.4s2.9-4.1,2.9-7.3c0-3.3-1-5.7-2.9-7.1
			c-2-1.5-5.1-2.2-9.4-2.2h-7.6v19H284.2z"/>
		<path class="st2" d="M366.6,26.1c0,8-2,14.3-6.1,18.9s-9.7,6.9-17,6.9c-7.4,0-13.1-2.2-17.2-6.8s-6-10.9-6-19.1
			c0-8.1,2-14.4,6.1-18.9c4-4.5,9.8-6.7,17.2-6.7c7.2,0,12.9,2.3,16.9,6.8S366.6,18,366.6,26.1z M326.5,26.1
			c0,6.8,1.5,11.9,4.4,15.4s7.1,5.2,12.6,5.2c5.6,0,9.8-1.7,12.6-5.2s4.3-8.6,4.3-15.4c0-6.7-1.4-11.8-4.2-15.3
			c-2.8-3.5-7-5.2-12.6-5.2s-9.8,1.7-12.7,5.2C327.9,14.3,326.5,19.4,326.5,26.1z"/>
		<path class="st2" d="M394.2,51.1h-5.9V6.3h-15.9V1.1h37.7v5.2h-15.9L394.2,51.1L394.2,51.1z"/>
		<path class="st2" d="M462.4,26.1c0,8-2,14.3-6.1,18.9s-9.7,6.9-17,6.9c-7.4,0-13.1-2.2-17.2-6.8c-4-4.5-6-10.9-6-19.1
			c0-8.1,2-14.4,6.1-18.9c4-4.5,9.8-6.7,17.2-6.7c7.2,0,12.9,2.3,16.9,6.8C460.4,11.7,462.4,18,462.4,26.1z M422.3,26.1
			c0,6.8,1.5,11.9,4.4,15.4s7.1,5.2,12.6,5.2c5.6,0,9.8-1.7,12.6-5.2c2.8-3.5,4.3-8.6,4.3-15.4c0-6.7-1.4-11.8-4.2-15.3
			c-2.8-3.5-7-5.2-12.6-5.2s-9.8,1.7-12.7,5.2C423.8,14.3,422.3,19.4,422.3,26.1z"/>
		<path class="st2" d="M496.2,5.6c-5.5,0-9.9,1.8-13.1,5.5s-4.8,8.7-4.8,15c0,6.5,1.5,11.6,4.6,15.2s7.5,5.3,13.2,5.3
			c3.5,0,7.5-0.6,12-1.9v5.1c-3.5,1.3-7.8,1.9-12.9,1.9c-7.4,0-13.1-2.2-17.2-6.7c-4-4.5-6-10.8-6-19c0-5.1,1-9.7,2.9-13.5
			c1.9-3.9,4.7-6.9,8.4-9c3.7-2.1,8-3.1,12.9-3.1c5.3,0,9.9,1,13.8,2.9l-2.5,5C503.8,6.5,500,5.6,496.2,5.6z"/>
		<path class="st2" d="M563.7,26.1c0,8-2,14.3-6.1,18.9s-9.7,6.9-17,6.9c-7.4,0-13.1-2.2-17.2-6.8c-4-4.5-6-10.9-6-19.1
			c0-8.1,2-14.4,6.1-18.9c4-4.5,9.8-6.7,17.2-6.7c7.2,0,12.9,2.3,16.9,6.8C561.7,11.7,563.7,18,563.7,26.1z M523.6,26.1
			c0,6.8,1.5,11.9,4.4,15.4s7.1,5.2,12.6,5.2c5.6,0,9.8-1.7,12.6-5.2s4.3-8.6,4.3-15.4c0-6.7-1.4-11.8-4.2-15.3s-7-5.2-12.6-5.2
			s-9.8,1.7-12.7,5.2C525.1,14.3,523.6,19.4,523.6,26.1z"/>
		<path class="st2" d="M576,51.1v-50h5.9v44.7H604v5.3H576z"/>
	</g>
	<g class="st1">
		<path class="st2" d="M17.8,92.8c0,3.7-1,6.4-3,8.4c-2,1.9-4.9,2.9-8.6,2.9H0V82h6.8c3.5,0,6.2,1,8.1,2.9
			C16.8,86.8,17.8,89.4,17.8,92.8z M15,92.9c0-2.9-0.7-5.1-2.2-6.5c-1.5-1.5-3.6-2.2-6.5-2.2H2.6v17.7h3.2c3.1,0,5.4-0.8,7-2.3
			C14.3,98.1,15,95.9,15,92.9z"/>
		<path class="st2" d="M29.4,104.4c-2.5,0-4.4-0.7-5.8-2.2c-1.4-1.5-2.1-3.6-2.1-6.2c0-2.7,0.7-4.8,2-6.4s3.1-2.4,5.3-2.4
			c2.1,0,3.7,0.7,5,2.1c1.2,1.4,1.8,3.2,1.8,5.4v1.6H24.1c0.1,1.9,0.5,3.4,1.5,4.4c0.9,1,2.3,1.5,4,1.5c1.8,0,3.6-0.4,5.3-1.1v2.2
			c-0.9,0.4-1.7,0.7-2.5,0.8C31.5,104.3,30.6,104.4,29.4,104.4z M28.7,89.3c-1.3,0-2.4,0.4-3.2,1.3c-0.8,0.9-1.3,2.1-1.4,3.6h8.7
			c0-1.6-0.4-2.8-1.1-3.6C31.1,89.7,30.1,89.3,28.7,89.3z"/>
		<path class="st2" d="M46.6,104.4c-2.4,0-4.3-0.7-5.6-2.2s-2-3.6-2-6.3c0-2.8,0.7-4.9,2-6.4s3.3-2.3,5.8-2.3c0.8,0,1.6,0.1,2.4,0.3
			c0.8,0.2,1.4,0.4,1.9,0.6l-0.8,2.1c-0.6-0.2-1.2-0.4-1.8-0.6c-0.7-0.1-1.2-0.2-1.8-0.2c-3.4,0-5.1,2.2-5.1,6.4
			c0,2,0.4,3.6,1.2,4.7s2.1,1.6,3.7,1.6c1.4,0,2.8-0.3,4.3-0.9v2.2C49.7,104.1,48.3,104.4,46.6,104.4z"/>
		<path class="st2" d="M61.8,104.4c-2.5,0-4.4-0.7-5.8-2.2c-1.4-1.5-2.1-3.6-2.1-6.2c0-2.7,0.7-4.8,2-6.4s3.1-2.4,5.3-2.4
			c2.1,0,3.7,0.7,5,2.1c1.2,1.4,1.8,3.2,1.8,5.4v1.6H56.4c0.1,1.9,0.5,3.4,1.5,4.4c0.9,1,2.3,1.5,4,1.5c1.8,0,3.6-0.4,5.3-1.1v2.2
			c-0.9,0.4-1.7,0.7-2.5,0.8C63.9,104.3,62.9,104.4,61.8,104.4z M61.1,89.3c-1.3,0-2.4,0.4-3.2,1.3s-1.3,2.1-1.4,3.6h8.7
			c0-1.6-0.4-2.8-1.1-3.6C63.5,89.7,62.4,89.3,61.1,89.3z"/>
		<path class="st2" d="M83.7,104.1V93.4c0-1.4-0.3-2.4-0.9-3c-0.6-0.7-1.6-1-2.9-1c-1.7,0-3,0.5-3.8,1.4s-1.2,2.5-1.2,4.6v8.7h-2.5
			V87.5h2.1l0.4,2.3H75c0.5-0.8,1.2-1.5,2.2-1.9c0.9-0.4,2-0.7,3.1-0.7c2,0,3.5,0.5,4.5,1.4c1,1,1.5,2.5,1.5,4.6V104L83.7,104.1
			L83.7,104.1z"/>
		<path class="st2" d="M96.8,102.3c0.4,0,0.9,0,1.3-0.1s0.7-0.1,1-0.2v1.9c-0.3,0.1-0.7,0.2-1.2,0.3c-0.5,0.1-1,0.1-1.4,0.1
			c-3.2,0-4.8-1.7-4.8-5.1v-9.9h-2.4v-1.2l2.4-1l1.1-3.5h1.5v3.8H99v2h-4.8v9.8c0,1,0.2,1.8,0.7,2.3C95.3,102.1,96,102.3,96.8,102.3
			z"/>
		<path class="st2" d="M110.1,87.2c0.7,0,1.4,0.1,2,0.2l-0.4,2.3c-0.7-0.2-1.3-0.2-1.8-0.2c-1.4,0-2.5,0.5-3.5,1.6s-1.4,2.4-1.4,4.1
			v8.9h-2.5V87.5h2.1l0.3,3.1h0.1c0.6-1.1,1.4-1.9,2.2-2.5C108.1,87.5,109,87.2,110.1,87.2z"/>
		<path class="st2" d="M125.5,104.1l-0.5-2.4h-0.1c-0.8,1-1.7,1.7-2.5,2.1s-1.9,0.6-3.1,0.6c-1.7,0-3-0.4-3.9-1.3
			c-0.9-0.8-1.4-2.1-1.4-3.6c0-3.4,2.7-5.1,8.1-5.3l2.8-0.1v-1c0-1.3-0.3-2.3-0.8-2.9c-0.6-0.6-1.5-0.9-2.7-0.9
			c-1.4,0-3,0.4-4.7,1.3l-0.8-1.9c0.8-0.4,1.7-0.8,2.7-1c1-0.3,2-0.4,2.9-0.4c2,0,3.5,0.4,4.4,1.3c1,0.9,1.4,2.3,1.4,4.2v11.3
			C127.3,104.1,125.5,104.1,125.5,104.1z M119.7,102.3c1.6,0,2.8-0.4,3.7-1.3c0.9-0.9,1.3-2.1,1.3-3.6V96l-2.5,0.1
			c-2,0.1-3.5,0.4-4.4,0.9c-0.9,0.6-1.3,1.4-1.3,2.6c0,0.9,0.3,1.6,0.8,2.1C118,102.1,118.7,102.3,119.7,102.3z"/>
		<path class="st2" d="M135.1,104.1h-2.5V80.6h2.5V104.1z"/>
		<path class="st2" d="M140.2,83c0-0.6,0.1-1,0.4-1.3c0.3-0.3,0.6-0.4,1.1-0.4c0.4,0,0.8,0.1,1.1,0.4s0.4,0.7,0.4,1.3
			c0,0.6-0.1,1-0.4,1.3c-0.3,0.3-0.6,0.4-1.1,0.4c-0.4,0-0.8-0.1-1.1-0.4C140.4,84,140.2,83.6,140.2,83z M143,104.1h-2.5V87.5h2.5
			V104.1z"/>
		<path class="st2" d="M159,104.1h-12.1v-1.7l9.1-12.9h-8.6v-2h11.3v2l-9,12.7h9.2v1.9H159z"/>
		<path class="st2" d="M170,104.4c-2.5,0-4.4-0.7-5.8-2.2c-1.4-1.5-2.1-3.6-2.1-6.2c0-2.7,0.7-4.8,2-6.4s3.1-2.4,5.3-2.4
			c2.1,0,3.7,0.7,5,2.1c1.2,1.4,1.8,3.2,1.8,5.4v1.6h-11.5c0.1,1.9,0.5,3.4,1.5,4.4c0.9,1,2.3,1.5,4,1.5c1.8,0,3.6-0.4,5.3-1.1v2.2
			c-0.9,0.4-1.7,0.7-2.5,0.8C172.1,104.3,171.1,104.4,170,104.4z M169.3,89.3c-1.3,0-2.4,0.4-3.2,1.3s-1.3,2.1-1.4,3.6h8.7
			c0-1.6-0.4-2.8-1.1-3.6C171.6,89.7,170.6,89.3,169.3,89.3z"/>
		<path class="st2" d="M191.8,101.9h-0.1c-1.2,1.7-2.9,2.5-5.2,2.5c-2.2,0-3.9-0.7-5.1-2.2c-1.2-1.5-1.8-3.6-1.8-6.3
			c0-2.7,0.6-4.9,1.8-6.4s2.9-2.3,5.1-2.3c2.3,0,4,0.8,5.2,2.5h0.2l-0.1-1.2l-0.1-1.2v-6.8h2.5v23.6h-2.1L191.8,101.9z M186.8,102.3
			c1.7,0,3-0.5,3.8-1.4s1.2-2.4,1.2-4.5v-0.5c0-2.4-0.4-4-1.2-5s-2-1.5-3.8-1.5c-1.5,0-2.6,0.6-3.4,1.7c-0.8,1.1-1.2,2.8-1.2,4.9
			s0.4,3.7,1.2,4.8C184.1,101.8,185.2,102.3,186.8,102.3z"/>
		<path class="st2" d="M234,92.8c0,3.7-1,6.4-3,8.4c-2,1.9-4.9,2.9-8.6,2.9h-6.2V82h6.8c3.5,0,6.2,1,8.1,2.9
			C233,86.8,234,89.4,234,92.8z M231.2,92.9c0-2.9-0.7-5.1-2.2-6.5c-1.5-1.5-3.6-2.2-6.5-2.2h-3.8v17.7h3.2c3.1,0,5.4-0.8,7-2.3
			C230.4,98.1,231.2,95.9,231.2,92.9z"/>
		<path class="st2" d="M238.3,83c0-0.6,0.1-1,0.4-1.3c0.3-0.3,0.6-0.4,1.1-0.4c0.4,0,0.8,0.1,1.1,0.4s0.4,0.7,0.4,1.3
			c0,0.6-0.1,1-0.4,1.3c-0.3,0.3-0.6,0.4-1.1,0.4c-0.4,0-0.8-0.1-1.1-0.4C238.5,84,238.3,83.6,238.3,83z M241.1,104.1h-2.5V87.5h2.5
			V104.1z"/>
		<path class="st2" d="M260.1,87.5v1.6l-3.1,0.4c0.3,0.4,0.5,0.8,0.8,1.4c0.2,0.6,0.3,1.2,0.3,1.9c0,1.6-0.6,2.9-1.7,3.9
			s-2.7,1.5-4.6,1.5c-0.5,0-1,0-1.4-0.1c-1.1,0.6-1.6,1.3-1.6,2.1c0,0.5,0.2,0.8,0.6,1c0.4,0.2,1,0.3,1.9,0.3h3
			c1.8,0,3.2,0.4,4.2,1.1c1,0.8,1.5,1.9,1.5,3.3c0,1.8-0.7,3.2-2.2,4.2s-3.6,1.4-6.5,1.4c-2.2,0-3.9-0.4-5.1-1.2
			c-1.2-0.8-1.8-1.9-1.8-3.4c0-1,0.3-1.9,1-2.6c0.6-0.7,1.6-1.2,2.7-1.5c-0.4-0.2-0.8-0.5-1.1-0.9s-0.4-0.9-0.4-1.4
			c0-0.6,0.2-1.1,0.5-1.6s0.8-0.9,1.5-1.3c-0.9-0.4-1.6-1-2.1-1.8s-0.8-1.8-0.8-2.9c0-1.8,0.5-3.2,1.6-4.2s2.7-1.5,4.7-1.5
			c0.9,0,1.7,0.1,2.4,0.3C254.4,87.5,260.1,87.5,260.1,87.5z M246.8,106.9c0,0.9,0.4,1.6,1.1,2c0.8,0.5,1.9,0.7,3.3,0.7
			c2.1,0,3.7-0.3,4.7-0.9c1-0.6,1.5-1.5,1.5-2.6c0-0.9-0.3-1.5-0.8-1.9c-0.6-0.3-1.6-0.5-3.2-0.5h-3c-1.1,0-2,0.3-2.7,0.8
			S246.8,105.9,246.8,106.9z M248.2,92.8c0,1.2,0.3,2,1,2.6s1.6,0.9,2.8,0.9c2.5,0,3.7-1.2,3.7-3.6c0-2.5-1.2-3.7-3.7-3.7
			c-1.2,0-2.1,0.3-2.7,1S248.2,91.6,248.2,92.8z"/>
		<path class="st2" d="M263.3,83c0-0.6,0.1-1,0.4-1.3s0.6-0.4,1.1-0.4c0.4,0,0.8,0.1,1.1,0.4c0.3,0.3,0.4,0.7,0.4,1.3
			c0,0.6-0.1,1-0.4,1.3s-0.6,0.4-1.1,0.4c-0.4,0-0.8-0.1-1.1-0.4C263.5,84,263.3,83.6,263.3,83z M266.1,104.1h-2.5V87.5h2.5V104.1z"
			/>
		<path class="st2" d="M276.8,102.3c0.4,0,0.9,0,1.3-0.1s0.7-0.1,1-0.2v1.9c-0.3,0.1-0.7,0.2-1.2,0.3c-0.5,0.1-1,0.1-1.4,0.1
			c-3.2,0-4.8-1.7-4.8-5.1v-9.9h-2.4v-1.2l2.4-1l1.1-3.5h1.5v3.8h4.8v2h-4.8v9.8c0,1,0.2,1.8,0.7,2.3
			C275.3,102.1,276,102.3,276.8,102.3z"/>
		<path class="st2" d="M292.7,104.1l-0.5-2.4h-0.1c-0.8,1-1.7,1.7-2.5,2.1s-1.9,0.6-3.1,0.6c-1.7,0-3-0.4-3.9-1.3
			c-0.9-0.8-1.4-2.1-1.4-3.6c0-3.4,2.7-5.1,8.1-5.3l2.8-0.1v-1c0-1.3-0.3-2.3-0.8-2.9c-0.6-0.6-1.5-0.9-2.7-0.9
			c-1.4,0-3,0.4-4.7,1.3l-0.8-1.9c0.8-0.4,1.7-0.8,2.7-1c1-0.3,2-0.4,2.9-0.4c2,0,3.5,0.4,4.4,1.3c1,0.9,1.4,2.3,1.4,4.2v11.3
			C294.5,104.1,292.7,104.1,292.7,104.1z M287,102.3c1.6,0,2.8-0.4,3.7-1.3c0.9-0.9,1.3-2.1,1.3-3.6V96l-2.5,0.1
			c-2,0.1-3.5,0.4-4.4,0.9c-0.9,0.6-1.3,1.4-1.3,2.6c0,0.9,0.3,1.6,0.8,2.1C285.2,102.1,286,102.3,287,102.3z"/>
		<path class="st2" d="M302.3,104.1h-2.5V80.6h2.5V104.1z"/>
		<path class="st2" d="M334.2,104.1l-7.6-19.6h-0.1c0.1,1.6,0.2,3.4,0.2,5.5v14.1h-2.4V82h3.9l7.1,18.3h0.1l7.1-18.3h3.9v22.1h-2.6
			V89.9c0-1.6,0.1-3.4,0.2-5.3h-0.1l-7.6,19.6L334.2,104.1L334.2,104.1z"/>
		<path class="st2" d="M362.4,104.1l-0.5-2.4h-0.1c-0.8,1-1.7,1.7-2.5,2.1s-1.9,0.6-3.1,0.6c-1.7,0-3-0.4-3.9-1.3
			c-0.9-0.8-1.4-2.1-1.4-3.6c0-3.4,2.7-5.1,8.1-5.3l2.8-0.1v-1c0-1.3-0.3-2.3-0.8-2.9c-0.6-0.6-1.5-0.9-2.7-0.9
			c-1.4,0-3,0.4-4.7,1.3l-0.8-1.9c0.8-0.4,1.7-0.8,2.7-1c1-0.3,2-0.4,2.9-0.4c2,0,3.5,0.4,4.4,1.3c1,0.9,1.4,2.3,1.4,4.2v11.3
			C364.2,104.1,362.4,104.1,362.4,104.1z M356.7,102.3c1.6,0,2.8-0.4,3.7-1.3c0.9-0.9,1.3-2.1,1.3-3.6V96l-2.5,0.1
			c-2,0.1-3.5,0.4-4.4,0.9c-0.9,0.6-1.3,1.4-1.3,2.6c0,0.9,0.3,1.6,0.8,2.1C354.9,102.1,355.7,102.3,356.7,102.3z"/>
		<path class="st2" d="M377.1,87.2c0.7,0,1.4,0.1,2,0.2l-0.4,2.3c-0.7-0.2-1.3-0.2-1.8-0.2c-1.4,0-2.5,0.5-3.5,1.6s-1.4,2.4-1.4,4.1
			v8.9h-2.5V87.5h2.1l0.3,3.1h0.1c0.6-1.1,1.4-1.9,2.2-2.5S376,87.2,377.1,87.2z"/>
		<path class="st2" d="M384.7,95.6c0.4-0.6,1.1-1.4,2-2.4l5.4-5.7h3l-6.8,7.1l7.2,9.5h-3.1l-5.9-7.8l-1.9,1.6v6.2h-2.5V80.6h2.5V93
			c0,0.6,0,1.4-0.1,2.6H384.7z"/>
		<path class="st2" d="M405.6,104.4c-2.5,0-4.4-0.7-5.8-2.2s-2.1-3.6-2.1-6.2c0-2.7,0.7-4.8,2-6.4s3.1-2.4,5.3-2.4
			c2.1,0,3.7,0.7,5,2.1c1.2,1.4,1.8,3.2,1.8,5.4v1.6h-11.5c0.1,1.9,0.5,3.4,1.5,4.4c0.9,1,2.3,1.5,4,1.5c1.8,0,3.6-0.4,5.3-1.1v2.2
			c-0.9,0.4-1.7,0.7-2.5,0.8C407.7,104.3,406.8,104.4,405.6,104.4z M405,89.3c-1.3,0-2.4,0.4-3.2,1.3c-0.8,0.9-1.3,2.1-1.4,3.6h8.7
			c0-1.6-0.4-2.8-1.1-3.6C407.3,89.7,406.3,89.3,405,89.3z"/>
		<path class="st2" d="M421.5,102.3c0.4,0,0.9,0,1.3-0.1s0.7-0.1,1-0.2v1.9c-0.3,0.1-0.7,0.2-1.2,0.3c-0.5,0.1-1,0.1-1.4,0.1
			c-3.2,0-4.8-1.7-4.8-5.1v-9.9H414v-1.2l2.4-1l1.1-3.5h1.5v3.8h4.8v2H419v9.8c0,1,0.2,1.8,0.7,2.3
			C420,102.1,420.7,102.3,421.5,102.3z"/>
		<path class="st2" d="M426.9,83c0-0.6,0.1-1,0.4-1.3s0.6-0.4,1.1-0.4c0.4,0,0.8,0.1,1.1,0.4c0.3,0.3,0.4,0.7,0.4,1.3
			c0,0.6-0.1,1-0.4,1.3s-0.6,0.4-1.1,0.4c-0.4,0-0.8-0.1-1.1-0.4S426.9,83.6,426.9,83z M429.7,104.1h-2.5V87.5h2.5V104.1z"/>
		<path class="st2" d="M446.4,104.1V93.4c0-1.4-0.3-2.4-0.9-3c-0.6-0.7-1.6-1-2.9-1c-1.7,0-3,0.5-3.8,1.4s-1.2,2.5-1.2,4.6v8.7H435
			V87.5h2.1l0.4,2.3h0.1c0.5-0.8,1.2-1.5,2.2-1.9c0.9-0.4,2-0.7,3.1-0.7c2,0,3.5,0.5,4.5,1.4c1,1,1.5,2.5,1.5,4.6V104L446.4,104.1
			L446.4,104.1z"/>
		<path class="st2" d="M467.8,87.5v1.6l-3.1,0.4c0.3,0.4,0.5,0.8,0.8,1.4s0.3,1.2,0.3,1.9c0,1.6-0.6,2.9-1.7,3.9s-2.7,1.5-4.6,1.5
			c-0.5,0-1,0-1.4-0.1c-1.1,0.6-1.6,1.3-1.6,2.1c0,0.5,0.2,0.8,0.6,1s1,0.3,1.9,0.3h3c1.8,0,3.2,0.4,4.2,1.1c1,0.8,1.5,1.9,1.5,3.3
			c0,1.8-0.7,3.2-2.2,4.2s-3.6,1.4-6.5,1.4c-2.2,0-3.9-0.4-5.1-1.2c-1.2-0.8-1.8-1.9-1.8-3.4c0-1,0.3-1.9,1-2.6s1.6-1.2,2.7-1.5
			c-0.4-0.2-0.8-0.5-1.1-0.9c-0.3-0.4-0.4-0.9-0.4-1.4c0-0.6,0.2-1.1,0.5-1.6s0.8-0.9,1.5-1.3c-0.9-0.4-1.6-1-2.1-1.8
			s-0.8-1.8-0.8-2.9c0-1.8,0.5-3.2,1.6-4.2s2.7-1.5,4.7-1.5c0.9,0,1.7,0.1,2.4,0.3C462.1,87.5,467.8,87.5,467.8,87.5z M454.5,106.9
			c0,0.9,0.4,1.6,1.1,2c0.8,0.5,1.9,0.7,3.3,0.7c2.1,0,3.7-0.3,4.7-0.9s1.5-1.5,1.5-2.6c0-0.9-0.3-1.5-0.8-1.9
			c-0.6-0.3-1.6-0.5-3.2-0.5h-3c-1.1,0-2,0.3-2.7,0.8S454.5,105.9,454.5,106.9z M455.9,92.8c0,1.2,0.3,2,1,2.6s1.6,0.9,2.8,0.9
			c2.5,0,3.7-1.2,3.7-3.6c0-2.5-1.2-3.7-3.7-3.7c-1.2,0-2.1,0.3-2.7,1S455.9,91.6,455.9,92.8z"/>
		<path class="st2" d="M502,88.4c0,2.2-0.8,4-2.3,5.2s-3.7,1.8-6.6,1.8h-2.6v8.7h-2.6V82h5.8C499.2,82,502,84.1,502,88.4z
			 M490.5,93.2h2.3c2.3,0,4-0.4,5-1.1s1.5-1.9,1.5-3.5c0-1.5-0.5-2.6-1.4-3.3c-1-0.7-2.5-1.1-4.5-1.1h-2.9V93.2z"/>
		<path class="st2" d="M513.9,87.2c0.7,0,1.4,0.1,2,0.2l-0.4,2.3c-0.7-0.2-1.3-0.2-1.8-0.2c-1.4,0-2.5,0.5-3.5,1.6s-1.4,2.4-1.4,4.1
			v8.9h-2.5V87.5h2.1l0.3,3.1h0.1c0.6-1.1,1.4-1.9,2.2-2.5C511.9,87.5,512.9,87.2,513.9,87.2z"/>
		<path class="st2" d="M533.4,95.8c0,2.7-0.7,4.8-2.1,6.3c-1.4,1.5-3.3,2.3-5.7,2.3c-1.5,0-2.8-0.3-4-1s-2.1-1.7-2.7-3
			c-0.6-1.3-0.9-2.8-0.9-4.6c0-2.7,0.7-4.8,2-6.3c1.4-1.5,3.3-2.3,5.7-2.3c2.3,0,4.2,0.8,5.6,2.3C532.8,91.1,533.4,93.2,533.4,95.8z
			 M520.7,95.8c0,2.1,0.4,3.7,1.3,4.8c0.9,1.1,2.1,1.7,3.8,1.7s2.9-0.6,3.8-1.7c0.9-1.1,1.3-2.7,1.3-4.9c0-2.1-0.4-3.7-1.3-4.8
			c-0.9-1.1-2.1-1.6-3.8-1.6s-2.9,0.5-3.7,1.6S520.7,93.7,520.7,95.8z"/>
		<path class="st2" d="M543.3,102.3c0.4,0,0.9,0,1.3-0.1c0.4-0.1,0.7-0.1,1-0.2v1.9c-0.3,0.1-0.7,0.2-1.2,0.3
			c-0.5,0.1-1,0.1-1.4,0.1c-3.2,0-4.8-1.7-4.8-5.1v-9.9h-2.4v-1.2l2.4-1l1.1-3.5h1.5v3.8h4.8v2h-4.8v9.8c0,1,0.2,1.8,0.7,2.3
			C541.8,102.1,542.4,102.3,543.3,102.3z"/>
		<path class="st2" d="M563.3,95.8c0,2.7-0.7,4.8-2.1,6.3c-1.4,1.5-3.3,2.3-5.7,2.3c-1.5,0-2.8-0.3-4-1s-2.1-1.7-2.7-3
			c-0.6-1.3-0.9-2.8-0.9-4.6c0-2.7,0.7-4.8,2-6.3c1.4-1.5,3.3-2.3,5.7-2.3c2.3,0,4.2,0.8,5.6,2.3C562.6,91.1,563.3,93.2,563.3,95.8z
			 M550.6,95.8c0,2.1,0.4,3.7,1.3,4.8c0.9,1.1,2.1,1.7,3.8,1.7s2.9-0.6,3.8-1.7c0.9-1.1,1.3-2.7,1.3-4.9c0-2.1-0.4-3.7-1.3-4.8
			c-0.9-1.1-2.1-1.6-3.8-1.6s-2.9,0.5-3.7,1.6S550.6,93.7,550.6,95.8z"/>
		<path class="st2" d="M574.4,104.4c-2.4,0-4.3-0.7-5.6-2.2s-2-3.6-2-6.3c0-2.8,0.7-4.9,2-6.4s3.3-2.3,5.8-2.3
			c0.8,0,1.6,0.1,2.4,0.3c0.8,0.2,1.4,0.4,1.9,0.6l-0.8,2.1c-0.6-0.2-1.2-0.4-1.8-0.6c-0.7-0.1-1.2-0.2-1.8-0.2
			c-3.4,0-5.1,2.2-5.1,6.4c0,2,0.4,3.6,1.2,4.7s2.1,1.6,3.7,1.6c1.4,0,2.8-0.3,4.3-0.9v2.2C577.5,104.1,576.1,104.4,574.4,104.4z"/>
		<path class="st2" d="M597,95.8c0,2.7-0.7,4.8-2.1,6.3c-1.4,1.5-3.3,2.3-5.7,2.3c-1.5,0-2.8-0.3-4-1s-2.1-1.7-2.7-3
			c-0.6-1.3-0.9-2.8-0.9-4.6c0-2.7,0.7-4.8,2-6.3c1.4-1.5,3.3-2.3,5.7-2.3c2.3,0,4.2,0.8,5.6,2.3C596.3,91.1,597,93.2,597,95.8z
			 M584.3,95.8c0,2.1,0.4,3.7,1.3,4.8c0.9,1.1,2.1,1.7,3.8,1.7s2.9-0.6,3.8-1.7c0.9-1.1,1.3-2.7,1.3-4.9c0-2.1-0.4-3.7-1.3-4.8
			c-0.9-1.1-2.1-1.6-3.8-1.6s-2.9,0.5-3.7,1.6S584.3,93.7,584.3,95.8z"/>
		<path class="st2" d="M604,104.1h-2.5V80.6h2.5V104.1z"/>
	</g>
</g>
</svg>
