<?xml version="1.0" encoding="utf-8"?>
<!-- Generator: Adobe Illustrator 21.0.0, SVG Export Plug-In . SVG Version: 6.00 Build 0)  -->
<svg version="1.1" id="图层_1" xmlns="http://www.w3.org/2000/svg" xmlns:xlink="http://www.w3.org/1999/xlink" x="0px" y="0px"
	 viewBox="0 0 515 158" style="enable-background:new 0 0 515 158;" xml:space="preserve">
<style type="text/css">
	.st0{enable-background:new    ;}
	.st1{fill:#FFFFFF;}
	.st2{fill:none;}
	.st3{opacity:0.8;enable-background:new    ;}
</style>
<g>
	<g class="st0">
		<path class="st1" d="M104.1,23.5l-2.1-5.9h-8.2l-2.1,5.9H88L96,2h3.8l8,21.5H104.1z M101.1,14.5l-2-5.8c-0.1-0.4-0.3-1-0.6-1.8
			S98,5.4,97.9,5c-0.3,1.2-0.6,2.5-1.2,3.9l-1.9,5.6H101.1z"/>
		<path class="st1" d="M126.3,21c0.8,0,1.7-0.1,2.5-0.4v2.6c-0.4,0.2-0.9,0.3-1.5,0.4s-1.2,0.2-1.9,0.2c-3.3,0-4.9-1.7-4.9-5.2V9.9
			h-2.2V8.4l2.4-1.3l1.2-3.4h2.1v3.6h4.6v2.6H124v8.7c0,0.8,0.2,1.4,0.6,1.8C125.1,20.8,125.6,21,126.3,21z"/>
		<path class="st1" d="M145.5,23.5h-3.4V0.7h3.4V23.5z"/>
		<path class="st1" d="M170.6,23.5l-0.7-2.3h-0.1c-0.8,1-1.6,1.7-2.4,2c-0.8,0.4-1.8,0.5-3,0.5c-1.6,0-2.8-0.4-3.7-1.3
			s-1.3-2.1-1.3-3.6c0-1.7,0.6-2.9,1.9-3.8s3.1-1.3,5.7-1.4l2.8-0.1v-0.9c0-1-0.2-1.8-0.7-2.3s-1.2-0.8-2.2-0.8
			c-0.8,0-1.6,0.1-2.4,0.4s-1.5,0.5-2.2,0.9l-1.1-2.5c0.9-0.5,1.8-0.8,2.9-1s2-0.4,3-0.4c2.1,0,3.6,0.4,4.7,1.3s1.6,2.3,1.6,4.2
			v10.9h-2.8V23.5z M165.4,21.2c1.2,0,2.3-0.3,3-1s1.1-1.7,1.1-2.9v-1.4l-2.1,0.1c-1.6,0.1-2.8,0.3-3.5,0.8s-1.1,1.2-1.1,2.2
			c0,0.7,0.2,1.3,0.6,1.7C163.9,21,164.6,21.2,165.4,21.2z"/>
		<path class="st1" d="M198.7,18.9c0,1.6-0.6,2.8-1.7,3.6c-1.2,0.8-2.8,1.3-5,1.3s-3.9-0.3-5.2-1v-3c1.9,0.9,3.7,1.3,5.3,1.3
			c2.1,0,3.2-0.6,3.2-1.9c0-0.4-0.1-0.8-0.4-1s-0.6-0.6-1.2-0.8s-1.3-0.6-2.2-1c-1.9-0.7-3.1-1.4-3.8-2.2s-1-1.7-1-2.8
			c0-1.4,0.6-2.5,1.7-3.2S191.1,7,193,7s3.7,0.4,5.4,1.2l-1.1,2.6c-1.7-0.7-3.2-1.1-4.4-1.1c-1.8,0-2.7,0.5-2.7,1.6
			c0,0.5,0.2,0.9,0.7,1.3s1.5,0.8,3.1,1.5c1.3,0.5,2.3,1,2.9,1.4s1.1,0.9,1.3,1.5C198.6,17.4,198.7,18.1,198.7,18.9z"/>
		<path class="st1" d="M244.7,8.6c0,2.2-0.7,4-2.2,5.1s-3.5,1.8-6.3,1.8H234v8h-3.5V2.1h6.2c2.7,0,4.7,0.5,6,1.6
			S244.7,6.4,244.7,8.6z M234.1,12.5h1.9c1.8,0,3.1-0.3,4-0.9s1.3-1.6,1.3-2.9c0-1.2-0.4-2.1-1.1-2.8S238.1,5,236.5,5h-2.4V12.5z"/>
		<path class="st1" d="M266.9,7c0.7,0,1.3,0,1.7,0.1l-0.3,3.2c-0.5-0.1-1-0.2-1.5-0.2c-1.4,0-2.5,0.4-3.3,1.3s-1.3,2.1-1.3,3.5v8.5
			h-3.4V7.3h2.7l0.5,2.9h0.2c0.5-1,1.2-1.7,2.1-2.3S265.9,7,266.9,7z"/>
		<path class="st1" d="M295.9,15.4c0,2.6-0.7,4.7-2,6.2s-3.2,2.2-5.7,2.2c-1.5,0-2.9-0.3-4-1s-2.1-1.7-2.7-2.9s-0.9-2.8-0.9-4.5
			c0-2.6,0.7-4.7,2-6.2s3.2-2.2,5.7-2.2c2.3,0,4.2,0.8,5.6,2.3C295.2,10.8,295.9,12.8,295.9,15.4z M284.1,15.4
			c0,3.7,1.4,5.6,4.1,5.6s4.1-1.9,4.1-5.6s-1.4-5.6-4.1-5.6c-1.4,0-2.5,0.5-3.1,1.4S284.1,13.6,284.1,15.4z"/>
		<path class="st1" d="M315.9,21c0.8,0,1.7-0.1,2.5-0.4v2.6c-0.4,0.2-0.9,0.3-1.5,0.4s-1.2,0.2-1.9,0.2c-3.3,0-4.9-1.7-4.9-5.2V9.9
			H308V8.4l2.4-1.3l1.2-3.4h2.1v3.6h4.6v2.6h-4.6v8.7c0,0.8,0.2,1.4,0.6,1.8C314.7,20.8,315.2,21,315.9,21z"/>
		<path class="st1" d="M346,15.4c0,2.6-0.7,4.7-2,6.2s-3.2,2.2-5.7,2.2c-1.5,0-2.9-0.3-4-1s-2.1-1.7-2.7-2.9s-0.9-2.8-0.9-4.5
			c0-2.6,0.7-4.7,2-6.2S336,7,338.4,7c2.3,0,4.2,0.8,5.6,2.3C345.3,10.8,346,12.8,346,15.4z M334.2,15.4c0,3.7,1.4,5.6,4.1,5.6
			s4.1-1.9,4.1-5.6s-1.4-5.6-4.1-5.6c-1.4,0-2.5,0.5-3.1,1.4S334.2,13.6,334.2,15.4z"/>
		<path class="st1" d="M366.5,23.8c-2.5,0-4.3-0.7-5.6-2.1c-1.3-1.4-1.9-3.5-1.9-6.2s0.7-4.8,2-6.3s3.3-2.2,5.8-2.2
			c1.7,0,3.2,0.3,4.6,1l-1,2.8c-1.5-0.6-2.7-0.8-3.6-0.8c-2.8,0-4.2,1.9-4.2,5.6c0,1.8,0.3,3.2,1,4.1s1.7,1.4,3.1,1.4
			c1.5,0,3-0.4,4.4-1.1v3c-0.6,0.4-1.3,0.6-2,0.8S367.5,23.8,366.5,23.8z"/>
		<path class="st1" d="M399.2,15.4c0,2.6-0.7,4.7-2,6.2s-3.2,2.2-5.7,2.2c-1.5,0-2.9-0.3-4-1s-2.1-1.7-2.7-2.9s-0.9-2.8-0.9-4.5
			c0-2.6,0.7-4.7,2-6.2s3.2-2.2,5.7-2.2c2.3,0,4.2,0.8,5.6,2.3C398.5,10.8,399.2,12.8,399.2,15.4z M387.4,15.4
			c0,3.7,1.4,5.6,4.1,5.6s4.1-1.9,4.1-5.6s-1.4-5.6-4.1-5.6c-1.4,0-2.5,0.5-3.1,1.4S387.4,13.6,387.4,15.4z"/>
		<path class="st1" d="M416.6,23.5h-3.4V0.7h3.4V23.5z"/>
	</g>
	<path class="st2" d="M0,0"/>
	<g class="st0">
		<path class="st1" d="M84.8,86.3l-3.2-3.7c3.9-4.5,7.1-10.4,9.4-17.7l4.3,1c-0.5,1.7-1.1,3.3-1.7,4.9h16.5v-5.2h4.9v5.2h21.9V75
			H115v6.6h19.5v4.1H115v6.7h24.9v4.4h-56v-4.4h26.3v-6.7H91.8v-4.1h18.3V75H91.8C89.7,79.3,87.4,83.1,84.8,86.3z M132.8,40.1v23.4
			h-43V40.1H132.8z M128.1,49.9v-5.7H94.5v5.7H128.1z M128.1,53.7H94.5v5.7h33.6V53.7z"/>
		<path class="st1" d="M209.2,97.2c-4.4-0.1-7.9-0.5-10.5-1.2c-2.6-0.8-5-2.4-7.1-4.8c-0.9-1.1-1.8-1.7-2.6-1.7
			c-1.6,0-4.2,3-7.9,9.1l-3.6-3.2c3.5-5.5,6.6-8.9,9.3-10.1v-20h-9.4v-4.4h13.8v24.7c0.5,0.4,1.1,0.9,1.6,1.5
			c1.6,1.9,3.4,3.3,5.3,4.2c2.1,0.9,5.1,1.5,9,1.6c3.6,0.1,7.9,0.1,13.2,0.1c3,0,6.1-0.1,9.3-0.1c3.1-0.1,5.5-0.1,7.2-0.3l-1.1,4.8
			H221C217.4,97.4,213.5,97.3,209.2,97.2z M193.8,49.4l-3.4,3.3c-2.8-3.3-6.5-6.8-11.4-10.5l3.2-3.1
			C186.8,42.5,190.7,45.9,193.8,49.4z M217.5,38.4c3.7,5.9,10,11,19,15.5l-2.5,3.8c-2.5-1.2-4.7-2.4-6.6-3.8v4h-9.2V65h15.9v4.3
			h-15.9v13.9c0,3.5-1.7,5.3-5.1,5.3h-5.9l-1-4.5c1.8,0.2,3.6,0.3,5.3,0.3c1.5,0,2.2-0.8,2.2-2.2V69.4h-16v-4.3h16V58H204v-3.8
			c-2,1.5-4.2,2.7-6.5,3.8l-2.5-3.8c8.1-4.1,14.3-9.4,18.6-15.9L217.5,38.4L217.5,38.4z M207,74.1c-2.1,4.8-4.6,8.9-7.5,12.3
			l-3.6-2.5c2.8-3.2,5.3-7.1,7.4-11.6L207,74.1z M227.2,53.8c-4.9-3.3-8.8-7-11.6-11.1c-3.2,4.4-6.8,8.1-11,11.1
			C204.6,53.8,227.2,53.8,227.2,53.8z M234.7,84.2l-3.7,2.6c-2-3.8-4.8-8.1-8.2-12.8l3.6-2.2C230,76.5,232.8,80.6,234.7,84.2z"/>
		<path class="st1" d="M281.3,53.6V38.4h4.6v15.2h7.4V58h-7.4v40.5h-4.6V58h-7.7v-4.4H281.3z M301,64c-2,7.8-4.7,13.8-8.2,18l-3.2-3
			c3.4-4.2,6-9.6,7.6-16L301,64z M311.8,38.6V50h13.4c0,21.4-0.3,34.6-1,39.6c-0.7,5.5-3.8,8.4-9.4,8.4c-1,0-2.6-0.1-5-0.3l-1.2-4.4
			c2.1,0.1,3.9,0.2,5.5,0.2c3.2,0,5-2,5.5-5.9c0.4-3.6,0.7-14.6,0.8-33.1h-8.6v1.1c-0.3,19.6-5.5,33.9-15.9,43l-3.6-3.2
			c9.7-8.2,14.7-21.5,14.8-39.8v-1.1H296v-4.6h11.2V38.6H311.8z M334.5,78.7l-3.6,1.7c-1.7-5.9-3.6-11.3-5.6-15.9l3.7-1.2
			C331.1,68.1,332.9,73.3,334.5,78.7z"/>
		<path class="st1" d="M385.1,58.2v28.5c2.1-1.8,4.3-3.9,6.7-6.3l1.3,5.1c-3.8,3.7-7.8,7.1-12.1,10.1l-1.8-4.4
			c1-0.8,1.5-1.7,1.5-2.8V62.8H371v-4.6H385.1z M389.8,48.9l-3.2,3.3c-2.7-3.3-6.4-6.7-11.1-10.4l3.3-3.1
			C383.2,42.1,386.8,45.5,389.8,48.9z M427.4,42c-2.2,15.6-6.7,28.2-13.4,38c5.1,6.1,11.1,11,18,14.5l-2.8,4.2
			c-6.9-3.8-12.9-8.7-18-14.9c-5.3,6.5-11.7,11.4-19.4,14.9l-2.6-4c7.5-3.4,13.9-8.4,18.9-14.8c-6.5-8.8-11.5-19.7-15.2-32.5
			l4.1-2.2c3.3,12.3,7.9,22.6,13.9,30.9c6.1-9.2,10-20.9,12-35L427.4,42z M415,52.4l-3.8,2.6c-2.5-4.6-5.7-9.4-9.5-14.6l3.6-2.6
			C409.6,43.3,412.8,48.1,415,52.4z"/>
	</g>
	<g class="st3">
		<path class="st1" d="M26.7,155.9l-1.8,1.3c-0.5-0.9-1-1.8-1.5-2.7c-7,0.7-13.6,1.3-19.8,1.6l-0.4-1.8c2.6-1.4,5.2-4.8,7.9-10.2
			h-10V142h12.2v-5.7H3v-2.1h10.3v-4.8h2.2v4.8h10.3v2.1H15.6v5.7h12.2v2.1H13.5c-2.1,4.5-4.3,7.8-6.5,9.9c7.3-0.6,12.4-1,15.2-1.4
			c-1.3-1.9-2.7-3.9-4.3-6l1.7-1.1C22.8,149.5,25.1,152.9,26.7,155.9z"/>
		<path class="st1" d="M69.6,129.3v5.4h10.8v14.1h-2.2v-1.9h-8.6v10.2h-2.2v-10.2h-8.6v1.9h-2.2v-14.1h10.7v-5.4H69.6z M67.4,144.8
			v-8h-8.6v8H67.4z M78.2,144.8v-8h-8.6v8H78.2z"/>
		<path class="st1" d="M114.2,139.3c-0.8,5.2-2,9.6-3.6,13.3l-1.9-1.2c1.6-3.8,2.7-8,3.4-12.6L114.2,139.3z M119.6,156
			c-2.1,0-3.1-1-3.1-3v-17.2h2.2v16.8c0,0.9,0.5,1.3,1.6,1.3h5.6c0.7,0,1.2-0.3,1.5-0.9c0.4-0.7,0.6-2.8,0.8-6.3l2,0.7
			c-0.2,4.1-0.7,6.6-1.3,7.5c-0.6,0.8-1.5,1.1-2.7,1.1L119.6,156L119.6,156z M127,137.2l-1.8,1.2c-1.6-2.3-3.7-4.9-6.4-7.8l1.8-1.1
			C123.4,132.5,125.5,135,127,137.2z M136.4,150.4l-2,0.9c-1.6-4.8-3.3-9-5.1-12.7l2.1-0.7C133.3,141.9,135,146,136.4,150.4z"/>
		<path class="st1" d="M173.9,130.2c-1,2.5-2.4,4.9-4,7.1V157h-2.2v-17.1c-1.4,1.5-2.8,2.9-4.4,4.2l-0.7-2.2
			c4.3-3.7,7.3-7.9,9.3-12.6L173.9,130.2z M180,156.5c-2.1,0-3.1-1.1-3.1-3.2v-9.1c-1.3,0.7-2.5,1.4-3.9,2l-1-2
			c1.7-0.8,3.3-1.6,4.8-2.5v-12h2.2v10.7c3.1-2.1,5.9-4.5,8.3-7.2l1.5,1.7c-2.8,3-6.1,5.7-9.8,8V153c0,0.9,0.5,1.4,1.5,1.4h4.9
			c0.8,0,1.4-0.3,1.7-0.8s0.5-2.2,0.7-5.2l2,0.7c-0.2,3.5-0.6,5.5-1.1,6.3c-0.5,0.7-1.5,1.1-3,1.1H180z"/>
		<path class="st1" d="M224.6,143.6c-0.2,0.6-0.4,1.1-0.6,1.6h6.3v1.8c-0.7,2-1.8,3.7-3.3,5.1c1.4,0.7,2.8,1.3,4.1,2l-1.2,1.7
			c-1.3-0.8-2.9-1.6-4.6-2.4c-2,1.4-4.5,2.5-7.5,3.3l-1-1.8c2.5-0.7,4.6-1.5,6.3-2.5c-1.3-0.6-2.7-1.1-4.2-1.7
			c0.8-1.3,1.5-2.5,2.1-3.7h-3.5v-1.9h4.4c0.3-0.7,0.5-1.3,0.7-1.9L224.6,143.6z M223.4,135.2v-5.7h2v5.7h5.5v1.9h-5.5v0.3
			c1.6,0.8,3.3,1.7,5,2.8l-1.1,1.7c-1.5-1.2-2.8-2.2-3.9-2.9v3.9h-2v-5.7c-1,2.4-2.8,4.4-5.4,6.2l-1-1.7c2.3-1.3,3.9-2.8,4.8-4.5
			h-4.3v-1.9h5.9V135.2z M221.7,133.8l-1.6,0.7c-0.6-1.5-1.3-2.8-2-3.9l1.7-0.6C220.5,131.2,221.1,132.4,221.7,133.8z M228.3,147.2
			h-5.2c-0.5,1-1,2-1.6,2.9c1.2,0.4,2.3,0.8,3.4,1.3C226.4,150.1,227.6,148.7,228.3,147.2z M230.5,130.6c-0.6,1.3-1.4,2.6-2.3,3.9
			l-1.5-0.8c1-1.3,1.7-2.6,2.3-3.8L230.5,130.6z M233.8,140.9c-0.5,1.4-1.1,2.6-1.8,3.7l-1.4-1.6c1.8-3.4,3-7.9,3.6-13.6l2.1,0.4
			c-0.2,1.5-0.4,3-0.7,4.3h7.9v2.1h-1.9c-0.2,5-1.1,9.3-2.8,12.8c1.6,2.7,3.4,4.8,5.5,6.2l-1.2,1.8c-2.1-1.5-3.9-3.5-5.4-6.1
			c-1.4,2.4-3.3,4.4-5.5,6l-1.1-1.8c2.3-1.6,4.2-3.7,5.5-6.2C235.6,146.6,234.6,143.9,233.8,140.9z M234.8,137.7
			c0.8,3.5,1.7,6.5,2.9,9.1c1.2-3,1.8-6.6,1.9-10.6h-4.4L234.8,137.7z"/>
		<path class="st1" d="M292.5,137.8v2c-2,1.4-4.1,2.7-6.5,4v2h11.8v2.1H286v6.4c0,1.7-0.9,2.5-2.6,2.5h-3.7l-0.5-2
			c1,0,2.2,0.1,3.5,0.1c0.8,0,1.2-0.5,1.2-1.3V148h-12.5v-2.1h12.5V143c2.4-1.3,4.3-2.3,5.5-3.1h-12.9v-2L292.5,137.8L292.5,137.8z
			 M297.2,139.2H295v-4.6h-21.1v4.6h-2.2v-6.7h11.8c-0.4-1.1-0.9-2-1.3-2.9l2.5-0.4c0.4,1,0.8,2.1,1.2,3.3h11.3L297.2,139.2
			L297.2,139.2z"/>
		<path class="st1" d="M332.3,131.5v-2h2.2v2h8v-2h2.2v2h6.8v1.9h-6.8v1.8h-2.2v-1.8h-8v1.8h-2.2v-1.8h-6.8v-1.9H332.3z M350.6,142
			h-2.1v-3.8h-20v3.9h-2.1v-5.8h24.1v5.7H350.6z M348.9,157h-2.1v-1.2h-16.3v1.2h-2.1v-8.5h20.5V157z M346.8,153.9v-3.6h-16.3v3.6
			H346.8z M346,140.4v6.1h-14.9v-6.1H346z M344,142.1h-10.9v2.8H344V142.1z"/>
		<path class="st1" d="M384.8,129.9c-0.3,1-0.5,2-0.8,2.9h5.5v2h-6.2c-0.8,2.1-1.7,4-2.8,5.6l-1.8-1.1c1.9-3,3.2-6.3,4-9.9
			L384.8,129.9z M388.9,138.9v2h-3.1v3.8h4.1v2h-4.1v7c1.3-0.5,2.7-1.1,4.1-2l0.4,1.9c-1.9,1-4.1,1.9-6.6,2.6l-0.9-1.9
			c0.6-0.2,0.9-0.5,0.9-0.9v-6.8h-4.1v-2h4.1v-3.8h-1.9v-2L388.9,138.9L388.9,138.9z M395.2,135.7l-1.7,0.9c-0.9-1.9-1.8-3.6-2.8-5
			l1.8-0.9C393.5,132.2,394.4,133.9,395.2,135.7z M399.3,129.5v8.3h5.6v16c0,1.9-0.9,2.9-2.6,2.9h-3l-0.6-2.1l2.9,0.1
			c0.8,0,1.1-0.5,1.1-1.4v-3.1h-9.1v6.6h-2.2v-19h5.7v-8.3H399.3z M402.8,139.9h-9.1v3.3h9.1V139.9z M393.6,148.4h9.1v-3.3h-9.1
			V148.4z M405.7,131.2c-0.8,1.8-1.7,3.6-2.9,5.3l-1.8-0.9c1.2-1.8,2.1-3.5,2.8-5.3L405.7,131.2z"/>
		<path class="st1" d="M436.2,136.5v-6.9h2.1v6.9h3.4v2h-3.4v18.4h-2.1v-18.4h-3.5v-2H436.2z M445.2,141.2c-0.9,3.5-2.1,6.3-3.8,8.2
			L440,148c1.6-1.9,2.7-4.3,3.5-7.3L445.2,141.2z M450.1,129.7v5.2h6.1c0,9.7-0.2,15.7-0.5,18c-0.3,2.5-1.7,3.8-4.3,3.8
			c-0.5,0-1.2-0.1-2.2-0.1l-0.5-2c1,0.1,1.8,0.1,2.5,0.1c1.4,0,2.3-0.9,2.5-2.7c0.2-1.6,0.3-6.6,0.4-15h-3.9v0.5
			c-0.1,8.9-2.5,15.4-7.2,19.5l-1.6-1.4c4.4-3.8,6.7-9.8,6.7-18.1V137H443v-2.1h5.1v-5.2H450.1z M460.4,147.9l-1.7,0.8
			c-0.8-2.7-1.6-5.1-2.5-7.2l1.7-0.5C458.9,143.1,459.7,145.5,460.4,147.9z"/>
		<path class="st1" d="M493.3,138.6v13c1-0.8,1.9-1.8,3-2.8l0.6,2.3c-1.7,1.7-3.5,3.2-5.5,4.6l-0.8-2c0.5-0.4,0.7-0.8,0.7-1.3v-11.7
			h-4.4v-2.1H493.3z M495.5,134.4l-1.5,1.5c-1.2-1.5-2.9-3.1-5-4.7l1.5-1.4C492.5,131.3,494.1,132.8,495.5,134.4z M512.6,131.2
			c-1,7.1-3,12.8-6.1,17.3c2.3,2.8,5,5,8.2,6.6l-1.3,1.9c-3.1-1.7-5.8-4-8.2-6.8c-2.4,2.9-5.3,5.2-8.8,6.8l-1.2-1.8
			c3.4-1.6,6.3-3.8,8.6-6.7c-2.9-4-5.2-8.9-6.9-14.8l1.9-1c1.5,5.6,3.6,10.3,6.3,14c2.8-4.2,4.6-9.5,5.5-15.9L512.6,131.2z
			 M506.9,135.9l-1.7,1.2c-1.1-2.1-2.6-4.3-4.3-6.6l1.6-1.2C504.5,131.8,505.9,134,506.9,135.9z"/>
	</g>
</g>
</svg>
